# xmcd CD database file
#
# Track frame offsets:
#	150
#	9939
#	23507
#	33874
#	48299
#	59750
#	70748
#	82833
#	94088
#	102672
#	114605
#	125219
#	137762
#	150913
#	161818
#
# Disc length: 2293 seconds
#
# Revision: 0
# Processed by: cddbd v1.5.1PL0 Copyright (c) Steve Scherf et al.
# Submitted via: CDex 1.50
#
DISCID=bc08f30f
DTITLE=Wes Harris - Just Guitar
DYEAR=2005
DGENRE=Country
TTITLE0=I'm Standing On The Solid Rock
TTITLE1=Me And Bobby McGee
TTITLE2=Understand Your Man
TTITLE3=Storms Never Last
TTITLE4=Little Old Lady
TTITLE5=Villa
TTITLE6=Hidden Charm
TTITLE7=Mr. Sandman
TTITLE8=Darktown Strutters Ball
TTITLE9=Life Goes On
TTITLE10=I Feel Lucky
TTITLE11=Swedish Rhapsody
TTITLE12=Petite Waltz
TTITLE13=Spanish Two Steps
TTITLE14=Windy And Warm
EXTD=YEAR: 2005
EXTT0=
EXTT1=
EXTT2=
EXTT3=
EXTT4=
EXTT5=
EXTT6=
EXTT7=
EXTT8=
EXTT9=
EXTT10=
EXTT11=
EXTT12=
EXTT13=
EXTT14=
PLAYORDER=
